<?xml version="1.0" standalone="no"?>
<!DOCTYPE svg PUBLIC "-//W3C//DTD SVG 20010904//EN"
 "http://www.w3.org/TR/2001/REC-SVG-20010904/DTD/svg10.dtd">
<svg version="1.0" xmlns="http://www.w3.org/2000/svg"
 width="672.000000pt" height="499.000000pt" viewBox="0 0 672.000000 499.000000"
 preserveAspectRatio="xMidYMid meet">

<g transform="translate(0.000000,499.000000) scale(0.100000,-0.100000)"
fill="#000000" stroke="none">
<path d="M465 4971 c4 -15 -2 -26 -25 -42 -17 -13 -39 -38 -50 -56 l-19 -33
-120 0 c-168 0 -164 2 -186 -133 -10 -62 -27 -139 -37 -172 -23 -69 -28 -207
-10 -270 7 -23 12 -110 12 -206 0 -142 2 -168 16 -173 8 -3 12 -10 9 -16 -9
-15 75 -253 137 -392 29 -65 73 -145 97 -178 44 -60 45 -61 143 -91 82 -26
109 -30 161 -25 34 3 73 6 87 5 14 0 335 -3 714 -5 l690 -4 35 23 c33 22 42
23 111 16 111 -12 113 -13 225 -105 88 -73 111 -97 143 -158 22 -39 53 -114
70 -166 125 -389 219 -485 514 -525 62 -8 211 -30 331 -50 435 -70 507 -75
835 -63 209 8 298 8 315 1 27 -12 179 -251 222 -348 67 -150 196 -481 228
-585 60 -192 74 -259 88 -407 16 -182 6 -245 -61 -383 l-49 -99 73 -110 c45
-69 69 -114 63 -120 -13 -13 1 -66 23 -86 37 -33 182 -5 310 60 29 15 106 51
169 79 64 29 242 123 396 211 154 87 314 178 355 201 128 71 134 75 177 128
56 69 66 117 58 281 -7 142 -13 163 -94 350 -27 60 -67 160 -90 220 -24 61
-70 178 -104 260 -33 83 -77 191 -97 241 -21 50 -105 225 -189 390 -83 164
-151 304 -151 310 0 5 -10 30 -21 54 -13 26 -27 87 -35 150 l-13 105 33 70
c18 39 36 79 40 90 5 19 136 135 281 250 89 70 162 144 176 177 10 25 16 28
56 28 39 0 51 5 83 38 46 45 58 95 41 162 -14 54 -46 85 -97 94 -79 15 -120
68 -109 141 5 38 3 45 -17 59 -33 23 -128 21 -171 -4 l-34 -20 -24 38 c-32 46
-119 168 -207 289 -37 50 -76 94 -87 97 -11 3 -41 6 -66 6 -29 0 -51 6 -59 15
-6 8 -32 26 -57 40 -44 24 -53 25 -207 25 -88 0 -441 5 -784 12 l-622 12 -31
-30 -30 -29 -449 0 -449 0 -31 30 c-31 29 -34 30 -133 31 -256 2 -1053 14
-1247 19 -175 4 -919 6 -995 2 -11 0 -102 3 -202 7 -129 5 -183 4 -183 -3 0
-6 -16 -31 -35 -57 -19 -25 -35 -39 -35 -31 0 8 9 22 21 33 12 10 30 36 40 57
19 37 19 37 84 37 37 0 67 -5 71 -12 5 -8 93 -9 343 -4 185 4 762 2 1284 -5
521 -7 950 -9 954 -5 15 15 -14 62 -47 78 -30 15 -83 18 -380 22 -861 14
-1045 19 -1051 27 -3 5 -43 12 -90 14 -46 3 -118 8 -159 11 -41 3 -84 5 -95 5
-69 -3 -223 25 -320 58 -60 21 -127 41 -147 44 -35 5 -36 4 -26 -13 7 -11 10
-22 7 -25 -3 -3 -56 -8 -118 -12 -109 -6 -112 -5 -118 15 -3 12 -9 19 -14 16
-5 -3 -9 -1 -9 3 0 5 -9 14 -21 21 -19 12 -20 11 -14 -7z m-245 -450 c5 -11 6
-29 2 -40 -6 -18 -10 -19 -24 -9 -9 7 -20 25 -24 41 -5 23 -3 27 15 27 11 0
25 -9 31 -19z m747 -203 c-3 -7 -5 -2 -5 12 0 14 2 19 5 13 2 -7 2 -19 0 -25z
m5473 -424 c31 -30 35 -103 8 -130 -16 -16 -18 -14 -42 39 -20 46 -29 57 -48
57 -17 0 -27 8 -35 29 -6 17 -8 33 -4 36 14 14 97 -7 121 -31z m-5822 -21
c-54 -2 -142 -2 -195 0 -54 1 -10 3 97 3 107 0 151 -2 98 -3z m2187 -8 c6 -2
-174 -3 -400 -2 l-410 2 315 5 c294 5 471 3 495 -5z m1938 8 c-7 -2 -21 -2
-30 0 -10 3 -4 5 12 5 17 0 24 -2 18 -5z m1155 -20 c-27 -2 -69 -2 -95 0 -27
2 -5 3 47 3 52 0 74 -1 48 -3z m-1768 -22 c-14 -5 -45 -5 -70 -1 -41 7 -39 8
25 8 47 0 62 -2 45 -7z m93 2 c-7 -2 -21 -2 -30 0 -10 3 -4 5 12 5 17 0 24 -2
18 -5z m-70 -30 c-13 -2 -33 -2 -45 0 -13 2 -3 4 22 4 25 0 35 -2 23 -4z m31
-22 c7 -11 -43 -21 -105 -21 -75 0 -69 19 8 23 37 2 73 4 80 5 6 1 14 -2 17
-7z m-554 -471 c63 -5 125 -12 138 -15 30 -7 23 -29 -11 -33 -23 -3 -25 -6
-16 -29 5 -14 25 -52 44 -84 142 -243 37 -524 -208 -554 -46 -6 -57 -11 -57
-26 0 -26 10 -29 98 -31 62 -1 91 3 138 22 174 69 244 190 244 421 l0 117 46
56 c37 46 50 56 67 51 12 -3 58 -43 101 -88 96 -99 139 -184 150 -295 8 -80
-13 -215 -41 -267 -62 -115 -216 -245 -290 -245 -21 0 -53 -4 -72 -10 -25 -7
-101 -1 -305 25 -149 19 -302 39 -341 43 -128 16 -238 89 -290 192 -13 25 -34
79 -47 120 -20 66 -23 93 -22 232 1 176 1 175 93 286 90 109 252 140 581 112z"/>
<path d="M5249 4913 c-22 -3 -28 -13 -45 -71 l-19 -67 -165 3 c-91 1 -377 7
-636 13 -341 8 -483 7 -512 -1 -73 -19 -58 -30 42 -30 l94 0 8 -42 c5 -24 8
-49 7 -56 -2 -21 31 -9 42 16 l10 22 230 -5 c126 -3 331 -7 455 -10 124 -3
324 -9 445 -14 121 -5 223 -7 227 -5 4 3 89 6 188 6 l179 1 -39 31 c-22 17
-40 36 -40 43 0 10 -31 13 -127 15 -155 1 -146 2 -180 -6 l-28 -7 31 20 c39
24 64 58 64 88 0 22 3 23 100 23 79 0 100 3 100 14 0 8 -7 17 -16 20 -17 6
-372 6 -415 -1z"/>
</g>
</svg>
